<svg width="80" height="80" viewBox="0 0 80 80" fill="none" xmlns="http://www.w3.org/2000/svg">
<g clip-path="url(#clip0_245_2)">
<path fill-rule="evenodd" clip-rule="evenodd" d="M17.3083 7.5931C14.447 9.54502 11.8596 11.8528 9.61352 14.4507C18.7921 13.6194 30.4532 14.9769 43.9916 21.581C58.4488 28.6331 70.0904 28.8716 78.1924 27.3469C77.4572 25.1754 76.5316 23.0883 75.4354 21.1043C66.1608 22.0587 54.2708 20.7955 40.414 14.0362C31.6148 9.74395 23.8584 7.97581 17.3083 7.5931ZM70.0176 13.581C62.6934 5.59726 52.0496 0.572876 40.2028 0.572876C36.7238 0.572876 33.3482 1.00626 30.1302 1.82064C34.4886 2.98085 39.1186 4.67821 43.9916 7.05534C54.1368 12.0041 62.8956 13.5976 70.0176 13.581ZM79.9246 34.9691C70.1366 36.8548 56.6204 36.4675 40.414 28.5619C25.2628 21.1711 13.2037 21.2641 5.07068 23.0275C4.65088 23.1184 4.24096 23.214 3.84094 23.3135C2.77612 25.5728 1.92615 27.9486 1.31628 30.4158C1.96765 30.246 2.64074 30.0846 3.3352 29.934C13.202 27.7949 27.143 27.8878 43.9916 36.1067C59.143 43.4975 71.202 43.4044 79.3352 41.6411C79.6138 41.5808 79.8884 41.5184 80.1584 41.454C80.188 40.8388 80.2028 40.2197 80.2028 39.5972C80.2028 38.0314 80.1084 36.487 79.9246 34.9691ZM78.8524 49.6895C69.1594 51.3428 56.0368 50.7082 40.414 43.0876C25.2628 35.6967 13.2037 35.7898 5.07068 37.5531C3.26538 37.9443 1.64136 38.421 0.208741 38.9242C0.204835 39.148 0.202881 39.3724 0.202881 39.5972C0.202881 61.1498 18.1115 78.6216 40.2028 78.6216C58.717 78.6216 74.2934 66.3502 78.8524 49.6895Z" fill="#E16162"/>
</g>
<defs>
<clipPath id="clip0_245_2">
<rect width="80" height="80" fill="white"/>
</clipPath>
</defs>
</svg>
